HIERARCHY
ROOT Hips
{
  OFFSET 13.6774 106.653 -34.4427
  CHANNELS 6 Xposition Yposition Zposition Zrotation Xrotation Yrotation
  JOINT ToSpine
  {
    OFFSET -2.69724 7.43032 -0.144315
    CHANNELS 3 Zrotation Xrotation Yrotation
    JOINT Spine
    {
      OFFSET -0.0310711 10.7595 1.96963
      CHANNELS 3 Zrotation Xrotation Yrotation
      JOINT Spine1
      {
        OFFSET 19.9056 3.91189 0.764692
        CHANNELS 3 Zrotation Xrotation Yrotation
        JOINT Neck
        {
          OFFSET 25.9749 7.03908 -0.130764
          CHANNELS 3 Zrotation Xrotation Yrotation
          JOINT Head
          {
            OFFSET 9.52751 0.295786 -0.907742
            CHANNELS 3 Zrotation Xrotation Yrotation
            End Site
            {
              OFFSET 16.4037 0.713936 2.7358
            }
          }
        }
        JOINT LeftShoulder
        {
          OFFSET 17.7449 4.33886 11.7777
          CHANNELS 3 Zrotation Xrotation Yrotation
          JOINT LeftArm
          {
            OFFSET 0.911315 1.27913 9.80584
            CHANNELS 3 Zrotation Xrotation Yrotation
            JOINT LeftForeArm
            {
              OFFSET 28.6126 1.18197 -3.53199
              CHANNELS 3 Zrotation Xrotation Yrotation
              JOINT LeftHand
              {
                OFFSET 27.5088 0.0218783 0.327423
                CHANNELS 3 Zrotation Xrotation Yrotation
                End Site
                {
                  OFFSET 18.6038 -0.000155887 0.382096
                }
              }
            }
          }
        }
        JOINT RightShoulder
        {
          OFFSET 17.1009 2.89543 -12.2328
          CHANNELS 3 Zrotation Xrotation Yrotation
          JOINT RightArm
          {
            OFFSET 1.4228 0.178766 -10.211
            CHANNELS 3 Zrotation Xrotation Yrotation
            JOINT RightForeArm
            {
              OFFSET 28.733 1.87905 2.64907
              CHANNELS 3 Zrotation Xrotation Yrotation
              JOINT RightHand
              {
                OFFSET 27.4588 0.290562 -0.101845
                CHANNELS 3 Zrotation Xrotation Yrotation
                End Site
                {
                  OFFSET 17.8396 -0.255518 -0.000602873
                }
              }
            }
          }
        }
      }
    }
  }
  JOINT LeftUpLeg
  {
    OFFSET -5.61296 -2.22332 -10.2353
    CHANNELS 3 Zrotation Xrotation Yrotation
    JOINT LeftLeg
    {
      OFFSET 2.56703 -44.7417 -7.93097
      CHANNELS 3 Zrotation Xrotation Yrotation
      JOINT LeftFoot
      {
        OFFSET 3.16933 -46.5642 -3.96578
        CHANNELS 3 Zrotation Xrotation Yrotation
        JOINT LeftToeBase
        {
          OFFSET 0.346054 -6.02161 12.8035
          CHANNELS 3 Zrotation Xrotation Yrotation
          End Site
          {
            OFFSET 0.134235 -1.35082 5.13018
          }
        }
      }
    }
  }
  JOINT RightUpLeg
  {
    OFFSET -5.7928 -1.72406 10.6446
    CHANNELS 3 Zrotation Xrotation Yrotation
    JOINT RightLeg
    {
      OFFSET -2.57161 -44.7178 -7.85259
      CHANNELS 3 Zrotation Xrotation Yrotation
      JOINT RightFoot
      {
        OFFSET -3.10148 -46.5936 -4.03391
        CHANNELS 3 Zrotation Xrotation Yrotation
        JOINT RightToeBase
        {
          OFFSET -0.0828122 -6.13587 12.8035
          CHANNELS 3 Zrotation Xrotation Yrotation
          End Site
          {
            OFFSET -0.131328 -1.35082 5.13018
          }
        }
      }
    }
  }
}
MOTION
Frames: 16
Frame Time: 0.03333333333333333
0.0000 93.1000 0.0000 76.8240 -1.8235 2.2899 -71.0008 -0.2081 87.9981 78.9451 68.9009 4.0163 2.4280 17.9852 3.7345 -116.2566 30.5412 158.8090 -179.3693 74.7718 -149.5311 -1.3314 -19.1348 -31.6466 -51.9177 25.5233 -138.7084 32.1509 -5.9505 -98.0372 0.0988 -0.1204 -0.0194 -3.0127 6.1356 50.8306 -116.7875 -6.0386 102.5455 21.1888 -15.8036 55.7547 0.2285 0.1510 -0.1655 -58.3012 16.9474 96.1013 -2.9871 48.3033 -2.9970 -0.0175 -23.0065 -2.4340 1.8958 -8.8976 12.3919 -36.5518 -12.3868 71.7816 1.9125 44.4178 -0.0970 -21.8426 4.4548 3.0000 2.1006 -22.6070 -5.0471 
0.0000 93.1000 0.0000 76.1856 -1.3952 1.9577 -71.0023 -0.4298 87.9958 81.0592 68.0248 1.5483 2.7445 17.4299 3.0563 -115.2292 30.0838 157.8138 -177.4316 74.7234 -149.4431 -1.0688 -20.0749 -32.1849 -53.2163 26.9496 -139.7858 32.7186 -4.9703 -97.2832 0.0405 -0.3502 0.0007 -2.8078 6.5053 51.7344 -116.9455 -5.0393 106.8217 17.9382 -16.1442 50.0560 0.4425 0.4279 0.1375 -57.9921 17.9155 97.9039 -3.9304 48.1963 -3.9219 -0.0256 -21.0191 -2.4003 2.3987 -10.1049 12.2595 -36.1419 -12.6337 71.1337 1.7712 44.7811 3.9256 -20.0915 3.8545 2.6215 2.9740 -20.5581 -10.3549 
0.0000 93.1000 0.0000 76.2046 -1.0485 1.9867 -71.0017 -0.1613 87.9930 80.1034 67.8077 1.3647 2.8170 16.9397 3.4320 -115.3269 30.2076 157.0390 -176.6810 75.3073 -149.7157 -1.2604 -20.3563 -32.2078 -54.0450 27.0214 -139.8589 32.0840 -5.0466 -97.2775 -0.0947 -0.1060 -0.2689 -3.0081 6.6079 52.6359 -116.4164 -3.4785 108.9817 12.5178 -13.1673 48.3231 0.1547 0.0868 -0.2916 -57.9112 18.6407 99.7290 -3.9217 46.3391 -5.1477 -0.7810 -20.7253 -2.3690 2.2466 -9.7218 9.4114 -36.7683 -14.0523 69.1636 1.9118 44.4278 0.9101 -20.9908 3.5180 3.1660 1.8825 -20.9663 -4.5337 
0.0000 93.1000 0.0000 75.9115 -1.0461 1.0560 -71.0056 -0.0561 87.9889 80.9184 67.9552 1.1527 2.0882 17.0066 3.1468 -116.1848 30.4532 158.9283 -178.7636 75.2737 -146.7560 -1.7251 -20.1853 -31.7336 -54.1470 26.1742 -140.7128 32.0849 -5.3541 -97.0949 -0.3186 0.0814 -0.0616 -3.2420 6.8420 52.3507 -118.5980 -3.8226 110.7989 16.0711 -15.3649 49.0453 0.0903 -0.0949 -0.3927 -58.8754 18.1595 100.0317 -3.2768 44.3918 -5.2275 -1.3219 -21.5495 -1.9422 2.0129 -7.9876 8.1148 -36.0036 -13.9891 68.9620 1.6880 44.4250 2.7063 -20.9927 3.8611 2.9195 2.0477 -21.5422 -7.3073 
0.0000 93.1000 0.0000 74.9669 -0.1311 1.0619 -71.0052 -0.2138 87.9887 80.9758 67.9165 1.9278 2.0134 16.9848 2.5911 -118.2704 30.6549 159.9095 -179.4882 75.0420 -147.6237 -1.2573 -19.3807 -30.7129 -54.9580 25.8974 -141.7050 31.7140 -5.3427 -97.3074 -0.1520 -0.1332 0.0638 -3.1301 6.9006 52.9952 -119.7798 -4.0703 111.8355 17.8673 -15.6028 50.8883 0.2274 0.1170 -0.1276 -58.8975 17.8633 99.1858 -2.9338 44.2618 -5.8579 -1.3687 -21.7132 -2.0189 2.5095 -9.1975 7.9284 -35.0410 -13.9000 69.7879 1.9380 44.7979 3.0377 -21.4631 3.0928 2.8011 2.1736 -21.8856 -8.0021 
0.0000 93.1000 0.0000 75.0107 -0.2716 1.0182 -71.0054 -0.1516 87.9870 80.9246 67.6895 2.0369 2.3225 16.9872 2.0222 -118.3377 30.3202 158.0125 -174.2097 74.8084 -151.3972 -1.1404 -19.1463 -29.0713 -55.3190 26.1316 -142.7769 30.4245 -4.7152 -97.0870 -0.1418 -0.1080 0.1266 -3.1270 6.9995 52.8438 -121.0527 -4.4321 112.8696 18.3361 -15.2088 50.9184 0.1174 0.0404 -0.1858 -59.0326 17.0597 99.1658 -2.9415 43.2553 -5.8417 -1.9697 -21.4276 -1.9659 2.7002 -9.5934 8.6232 -34.8493 -14.0221 70.1869 1.7726 44.1419 3.0871 -21.4191 3.4028 2.9723 2.0378 -22.2124 -9.4083 
0.0000 93.1000 0.0000 75.0876 0.7802 1.1361 -71.0055 -0.2170 87.9864 82.0914 67.7758 0.9842 1.7256 17.0118 1.9047 -119.2073 30.5164 157.0615 -172.4071 74.7492 -154.1404 -1.3784 -18.8070 -27.9766 -54.9626 26.5749 -143.7969 31.4693 -4.5181 -96.3591 -0.3110 -0.1840 0.2323 -3.3426 7.1697 52.1376 -121.7569 -5.6201 112.8236 18.0901 -14.8128 51.0598 0.1962 0.1248 -0.1449 -58.9815 17.1168 98.8609 -3.0897 42.4820 -5.2242 -2.1628 -21.1822 -1.7728 2.8661 -9.7524 7.0737 -34.9636 -14.7042 69.9465 1.9172 44.1001 2.7276 -20.9090 3.6343 2.8021 1.7736 -22.3136 -7.5246 
0.0000 93.1000 0.0000 75.0857 0.9489 1.2782 -71.0016 -0.2721 87.9860 81.9632 67.9569 1.8470 2.1398 16.8878 1.4204 -119.3543 31.2414 157.1173 -173.3847 74.9259 -152.8212 -0.4125 -18.7050 -27.7571 -54.8507 27.0064 -143.7325 30.9803 -3.7467 -96.1771 0.1593 -0.3625 0.1543 -2.8774 7.2228 52.0649 -122.7352 -6.3691 112.8166 16.9284 -14.3268 51.9814 0.0621 0.3633 0.4049 -58.8575 17.2066 98.8247 -2.8233 42.5311 -5.1765 -2.5333 -21.8734 -2.2978 2.6940 -8.4568 4.5693 -35.9940 -15.3701 69.6021 1.7997 43.4861 2.8415 -20.9848 3.9225 3.0102 2.0760 -21.5374 -5.6922 
0.0000 93.1000 0.0000 74.6834 0.9789 0.9934 -71.0020 -0.0306 87.9868 81.8461 68.0979 0.8559 1.8916 16.9508 1.6909 -121.2424 31.8806 158.1392 -173.2447 75.2333 -154.0657 -1.2019 -18.8576 -28.1037 -55.0643 27.1336 -143.8462 30.9780 -3.9713 -96.2274 -0.0105 -0.0802 0.0440 -3.2422 7.0834 51.1077 -123.1036 -7.3182 112.6761 16.1793 -14.0092 51.9615 -0.0581 0.0729 0.0995 -59.0705 17.1798 98.8802 -3.0566 42.2219 -6.2493 -3.1407 -21.2671 -1.8359 2.7401 -9.0710 6.3573 -35.9500 -15.8461 69.3709 1.9709 43.0710 3.7651 -20.8292 3.8541 2.8689 1.4287 -21.7516 -5.9636 
0.0000 93.1000 0.0000 75.2348 0.7335 1.0727 -70.9981 0.1884 87.9863 81.8433 68.2566 0.6464 1.9992 17.1356 2.3030 -122.3187 32.0983 158.0664 -172.7041 75.7265 -155.1482 -0.5829 -19.1022 -28.1558 -54.9561 27.2832 -143.7957 31.1632 -3.7669 -96.2067 0.2706 0.0082 -0.0309 -2.8197 6.9743 50.2142 -123.6847 -8.0114 112.7465 16.8114 -13.8840 53.0228 -0.1692 -0.0163 0.2310 -59.0245 17.0653 99.0851 -2.7392 42.4996 -7.0378 -3.5169 -21.0859 -2.2046 3.0918 -9.6179 6.8649 -35.9094 -15.9010 68.8574 1.9075 43.0319 3.8261 -21.1652 4.1732 3.2330 1.8715 -22.5000 -6.4916 
0.0000 93.1000 0.0000 75.9339 -0.0662 0.8692 -70.9976 0.2237 87.9870 80.9229 68.6815 0.9623 2.1682 17.7760 2.4880 -122.3033 32.2886 157.0262 -170.8009 75.8256 -156.2115 -0.8162 -19.4806 -28.8991 -55.0680 27.2466 -142.8444 30.9096 -4.3097 -96.2303 0.1198 0.0939 0.0534 -2.9187 7.0328 48.9978 -123.8402 -9.0633 111.6126 17.8921 -13.9925 54.1624 -0.1479 -0.0287 0.3153 -59.9913 16.0245 98.9352 -2.5427 42.5592 -6.5953 -4.0118 -20.1948 -1.9190 3.9158 -10.8439 5.9224 -36.0690 -16.0685 68.9043 1.8729 43.2275 3.7601 -21.1095 4.0356 3.1148 1.8879 -21.9870 -6.1048 
0.0000 93.1000 0.0000 75.9954 -0.2820 -0.0977 -70.9921 0.7101 87.9889 80.9291 68.9782 1.7448 2.6745 17.8637 3.1077 -124.2070 32.7774 157.8279 -171.6590 76.2227 -154.2382 -0.4173 -19.5665 -29.3203 -55.9584 27.0240 -142.7428 30.9348 -4.1655 -96.2160 -0.0202 0.4518 -0.2485 -2.4799 6.8419 48.1714 -123.8854 -9.2346 110.7643 17.7664 -13.8865 54.7362 -0.4543 -0.3822 0.1670 -59.3636 16.0437 99.8011 -3.2587 43.3898 -5.2070 -3.9277 -19.7791 -2.3417 4.3605 -11.8954 4.5401 -36.0382 -16.0567 69.9402 1.8382 43.2470 4.1985 -21.1130 4.2670 3.4286 2.3527 -21.9217 -6.6412 
0.0000 93.1000 0.0000 76.0021 -0.1625 -0.1861 -70.9975 0.2859 87.9893 79.8760 69.3580 1.9361 3.0632 17.9893 3.6307 -124.3535 33.0750 159.1645 -174.5926 76.1609 -151.3667 -0.9114 -20.2591 -29.9622 -56.1414 27.1308 -141.7970 31.1008 -3.9981 -96.0841 -0.2795 0.1305 -0.0559 -2.7828 6.7181 47.8827 -123.9196 -9.3415 110.7699 17.9003 -13.3324 55.0132 -0.2918 -0.1591 0.2471 -59.8111 15.9035 100.0664 -3.1932 43.4327 -6.0397 -3.5130 -19.5769 -1.9935 5.2428 -13.9307 5.3188 -35.8159 -15.9205 70.1029 1.9640 43.1909 4.1263 -20.9999 4.7798 3.0046 1.9950 -21.5936 -7.1013 
0.0000 93.1000 0.0000 76.0205 -0.1890 -0.2423 -70.9975 0.2096 87.9932 78.8806 69.2132 2.9679 3.8649 18.0112 4.0387 -125.1746 33.8763 159.1378 -174.3891 76.7189 -151.2365 -0.7423 -20.1914 -30.0715 -56.0062 27.0483 -140.6880 30.9967 -3.7001 -96.3729 -0.1953 0.1052 -0.0487 -2.7299 6.9949 48.3801 -123.9502 -8.9992 110.6481 17.1660 -13.3575 54.8832 -0.1247 -0.1319 0.1175 -59.9694 15.9735 98.9379 -2.9723 43.4811 -6.0352 -3.9530 -20.7502 -2.0753 4.7092 -10.5414 5.4671 -35.7016 -15.1849 70.9671 1.9744 43.4153 3.2706 -20.8164 4.2533 3.0350 1.8777 -21.1275 -7.0904 
0.0000 93.1000 0.0000 76.1152 -0.3352 -0.2408 -70.9996 0.0827 87.9929 78.8607 69.0385 3.7733 4.1590 17.9599 2.9646 -125.2518 33.7358 160.2374 -176.4575 76.1463 -149.2905 -1.1201 -19.7833 -30.0237 -56.0231 27.1634 -140.7655 30.8698 -3.9326 -96.2705 0.0372 0.1690 -0.0529 -2.9532 7.0776 48.9305 -123.6767 -9.0636 110.7684 17.9214 -13.6352 54.8059 -0.0254 -0.1713 -0.0401 -60.3265 16.1566 98.9549 -3.0115 43.5982 -5.9318 -3.9996 -20.1308 -1.8752 4.6637 -12.1431 5.7250 -36.0518 -14.9021 71.1468 1.9714 43.1614 3.0957 -20.4459 4.0961 3.0827 1.8057 -21.1759 -7.2046 
0.0000 93.1000 0.0000 76.0619 -0.1655 0.8108 -70.9972 0.2848 87.9941 78.9661 68.8992 4.0057 4.2499 18.1014 2.3682 -125.2276 33.2287 159.1935 -176.5936 75.8618 -150.2704 -0.9862 -19.7027 -30.1189 -56.0928 27.2105 -140.7750 31.0158 -4.1514 -96.2334 0.0358 0.3275 -0.0876 -2.8532 7.1097 49.8172 -123.0070 -9.2177 111.5852 17.8065 -14.0006 54.9165 -0.1732 -0.2938 -0.1546 -60.1386 16.0895 98.8951 -2.9166 43.2329 -5.9273 -3.8899 -19.2644 -1.9773 4.6377 -12.6598 5.6307 -35.7396 -15.0804 70.8255 1.8682 42.2971 2.8235 -20.1354 4.6543 3.1512 1.9707 -21.0175 -6.7850 
